<svg width="27" height="26" viewBox="0 0 27 26" fill="none" xmlns="http://www.w3.org/2000/svg">
<path d="M25.7346 12.5058C25.7346 13.7255 24.1143 14.6729 23.7586 15.7734C23.3899 16.914 24.1337 18.6349 23.446 19.5843C22.7513 20.5432 20.8878 20.3608 19.9333 21.0587C18.9883 21.7497 18.5889 23.5903 17.4535 23.9607C16.3581 24.318 14.9629 23.0764 13.7488 23.0764C12.5348 23.0764 11.1397 24.318 10.0442 23.9607C8.90885 23.5903 8.50939 21.7497 7.56439 21.0587C6.60994 20.3608 4.74631 20.5432 4.05172 19.5843C3.36396 18.6349 4.10777 16.914 3.7391 15.7734C3.38343 14.6729 1.76306 13.7255 1.76306 12.5058C1.76306 11.2862 3.38343 10.3387 3.7391 9.23821C4.10777 8.09759 3.36396 6.37671 4.05172 5.42734C4.74637 4.46846 6.60994 4.65078 7.56439 3.9529C8.50939 3.26196 8.90885 1.42127 10.0442 1.0509C11.1397 0.69365 12.5348 1.93527 13.7488 1.93527C14.9628 1.93527 16.358 0.69365 17.4534 1.05096C18.5888 1.42134 18.9883 3.26202 19.9333 3.95296C20.8877 4.65084 22.7513 4.46853 23.4459 5.4274C24.1337 6.37678 23.3899 8.09771 23.7585 9.23828C24.1143 10.3388 25.7346 11.2862 25.7346 12.5058Z" fill="#6CF5C2"/>
<path d="M25.7347 12.5059C25.7347 11.2862 24.1143 10.3388 23.7587 9.23823C23.39 8.0976 24.1338 6.37673 23.446 5.42735C23.0038 4.81691 22.088 4.66885 21.2343 4.46191C22.3842 6.2791 23.0506 8.43535 23.0506 10.7482C23.0506 17.2287 17.8213 22.4823 11.3706 22.4823C10.35 22.4823 9.36007 22.3504 8.4165 22.1033C8.88247 22.8648 9.30912 23.721 10.0443 23.9608C11.1397 24.3181 12.5349 23.0765 13.7489 23.0765C14.9629 23.0765 16.3581 24.3181 17.4535 23.9608C18.5889 23.5904 18.9883 21.7497 19.9334 21.0588C20.8878 20.3609 22.7514 20.5432 23.446 19.5843C24.1338 18.635 23.3901 16.914 23.7587 15.7735C24.1143 14.673 25.7347 13.7255 25.7347 12.5059Z" fill="#00F2A6"/>
<path d="M13.7488 20.4424C18.1121 20.4424 21.6492 16.8888 21.6492 12.5054C21.6492 8.12187 18.1121 4.56836 13.7488 4.56836C9.38553 4.56836 5.84839 8.12187 5.84839 12.5054C5.84839 16.8888 9.38553 20.4424 13.7488 20.4424Z" fill="#EAF6FF"/>
<path d="M15.8353 11.6871C15.8353 13.0604 14.6218 14.2353 14.0458 14.7157C13.8735 14.8594 13.6246 14.8594 13.4523 14.7157C12.8763 14.2353 11.6628 13.0604 11.6628 11.6871C11.6628 10.3139 12.8763 9.13892 13.4523 8.65855C13.6246 8.51486 13.8735 8.51486 14.0458 8.65855C14.6218 9.13892 15.8353 10.3139 15.8353 11.6871Z" fill="#0ED290"/>
<path d="M9.90217 15.0549C10.8687 16.0259 12.5538 15.9947 13.2991 15.9252C13.522 15.9044 13.6982 15.7275 13.7188 15.5036C13.788 14.7547 13.819 13.0619 12.8525 12.0909C11.886 11.1199 10.2009 11.1511 9.45555 11.2206C9.23265 11.2414 9.05652 11.4183 9.03587 11.6422C8.96669 12.391 8.93565 14.0838 9.90217 15.0549Z" fill="#6CF5C2"/>
<path d="M12.8525 12.0909C12.6926 11.9303 12.5129 11.7976 12.3212 11.6875C12.8744 12.6592 12.8438 13.9414 12.786 14.5664C12.7652 14.7904 12.5892 14.9673 12.3663 14.9881C11.7442 15.0461 10.4678 15.0769 9.50061 14.5212C9.61023 14.7137 9.7423 14.8944 9.90219 15.0549C10.8688 16.0259 12.5538 15.9948 13.2991 15.9253C13.5221 15.9044 13.6981 15.7276 13.7188 15.5036C13.7881 14.7547 13.8191 13.0619 12.8525 12.0909Z" fill="#00F2A6"/>
<path d="M17.5956 15.0549C16.629 16.0259 14.944 15.9947 14.1986 15.9252C13.9757 15.9044 13.7996 15.7275 13.7789 15.5036C13.7097 14.7547 13.6787 13.0619 14.6452 12.0909C15.6117 11.1199 17.2968 11.1511 18.0422 11.2206C18.2651 11.2414 18.4412 11.4183 18.4619 11.6422C18.531 12.391 18.5621 14.0838 17.5956 15.0549Z" fill="#6CF5C2"/>
<path d="M18.4917 12.2529C18.355 12.805 18.1124 13.3484 17.6963 13.7664C16.6653 14.8022 14.8679 14.7689 14.0728 14.6948C13.9478 14.6831 13.8369 14.6252 13.7563 14.5384C13.7384 14.9209 13.7565 15.2614 13.7789 15.5032C13.7996 15.7272 13.9756 15.9041 14.1986 15.9249C14.944 15.9944 16.629 16.0256 17.5955 15.0546C18.3502 14.2964 18.4967 13.0982 18.4917 12.2529Z" fill="#00F2A6"/>
<path d="M1.29639 12.5054C1.29639 11.6992 1.82746 11.033 2.26347 10.522C2.50151 10.2431 2.71866 10.0049 2.91092 9.75477C3.10039 9.50826 3.23059 9.2929 3.29501 9.09333L3.29507 9.09302C3.36379 8.88054 3.38679 8.61962 3.38012 8.30475C3.37337 7.98599 3.33876 7.66078 3.31044 7.29743C3.28327 6.94883 3.26283 6.57227 3.30041 6.21369C3.33832 5.85207 3.43794 5.47776 3.67454 5.15131C4.13762 4.51199 4.9552 4.2917 5.60189 4.13623C5.95565 4.05119 6.27358 3.9846 6.57681 3.89356C6.87628 3.80365 7.11352 3.7026 7.28976 3.5738C7.46301 3.44702 7.62965 3.253 7.80592 2.99476C7.98462 2.73294 8.14448 2.45026 8.33442 2.13739C8.68186 1.56509 9.14502 0.851159 9.90005 0.605107C10.2794 0.481366 10.662 0.503771 11.0131 0.580144C11.3614 0.655911 11.71 0.7922 12.0308 0.925847C12.3648 1.06499 12.6635 1.19875 12.9645 1.30341C13.262 1.40687 13.5203 1.46601 13.7487 1.46601C13.9771 1.46601 14.2355 1.40687 14.533 1.30341C14.834 1.19875 15.1327 1.06499 15.4667 0.925847C15.7874 0.792199 16.1361 0.65591 16.4844 0.580144C16.8355 0.503772 17.2181 0.481361 17.5974 0.605107L17.6326 0.617009C18.3669 0.873467 18.8211 1.57404 19.1631 2.13739C19.353 2.45026 19.5129 2.73294 19.6916 2.99476C19.8678 3.25299 20.0344 3.44702 20.2077 3.5738C20.3839 3.7026 20.6212 3.80365 20.9206 3.89356C21.2239 3.98461 21.5418 4.05119 21.8956 4.13623C22.5423 4.2917 23.3598 4.51201 23.8229 5.15131C24.0595 5.47776 24.1591 5.85207 24.197 6.21369C24.2346 6.57227 24.2142 6.94883 24.1871 7.29743C24.1587 7.66078 24.1241 7.98599 24.1174 8.30475C24.1111 8.59994 24.1309 8.84772 24.19 9.05262L24.2024 9.09302L24.2027 9.09375H24.2026C24.221 9.15082 24.2449 9.20941 24.2749 9.27021C24.3894 9.50212 24.2951 9.7834 24.0643 9.89844C23.8334 10.0135 23.5534 9.91874 23.4389 9.68683C23.3907 9.58911 23.3487 9.48792 23.3149 9.38276L23.3043 9.34913C23.1978 9.00107 23.177 8.63182 23.1844 8.28479C23.1919 7.93048 23.2311 7.5523 23.2567 7.22425C23.2834 6.88146 23.297 6.57858 23.269 6.31189C23.2414 6.04825 23.1759 5.85143 23.0685 5.70319L23.0684 5.70301C22.8372 5.38371 22.3757 5.21562 21.6784 5.04798C21.3601 4.97146 20.9898 4.8928 20.6534 4.79181C20.3133 4.6897 19.9597 4.55185 19.6588 4.33191L19.6586 4.33185C19.3594 4.11301 19.1218 3.81773 18.9219 3.52497C18.7245 3.2357 18.5364 2.90549 18.3664 2.62555C17.9941 2.01223 17.6898 1.62084 17.3095 1.49689L17.3093 1.49683C17.1409 1.4419 16.9383 1.4406 16.6818 1.4964C16.4224 1.55282 16.1409 1.65984 15.8242 1.79181C15.5206 1.91829 15.1744 2.07244 14.8382 2.18934C14.4985 2.30744 14.1272 2.40351 13.7487 2.40351C13.3703 2.40351 12.999 2.30743 12.6593 2.18934C12.3231 2.07244 11.9768 1.91829 11.6733 1.79181C11.3565 1.65984 11.075 1.55282 10.8157 1.4964C10.5591 1.4406 10.3565 1.44189 10.1881 1.49683L10.188 1.49689C9.80763 1.62085 9.50343 2.01224 9.13109 2.62555C8.96114 2.90549 8.77299 3.2357 8.57555 3.52497C8.37573 3.81773 8.13809 4.11301 7.83891 4.33185L7.83873 4.33191C7.5378 4.55186 7.18417 4.6897 6.84407 4.79181C6.50774 4.8928 6.13737 4.97146 5.81909 5.04798C5.12175 5.21562 4.66027 5.3837 4.42904 5.70301L4.42898 5.70319C4.32154 5.85143 4.25612 6.04824 4.22849 6.31189C4.20054 6.57858 4.21404 6.88146 4.24076 7.22425C4.26633 7.5523 4.30556 7.93048 4.31306 8.28479C4.32064 8.6429 4.29826 9.02466 4.18262 9.38239L4.18268 9.38245C4.06948 9.73318 3.86386 10.049 3.64957 10.3278C3.43805 10.6029 3.18343 10.8843 2.97192 11.1321C2.50881 11.6749 2.22957 12.0922 2.22957 12.5054C2.22957 12.919 2.50892 13.3364 2.97198 13.8792C3.18348 14.1271 3.43807 14.4084 3.64957 14.6836C3.86386 14.9624 4.06948 15.2782 4.18268 15.6289H4.18262C4.29828 15.9867 4.32064 16.3684 4.31306 16.7266C4.30556 17.0809 4.26633 17.4591 4.24076 17.7871C4.21404 18.1299 4.20054 18.4328 4.22849 18.6995C4.2544 18.9467 4.31349 19.1351 4.40929 19.2799L4.42898 19.3082V19.3083C4.5224 19.4372 4.65845 19.5469 4.84794 19.6444C5.07731 19.7623 5.16803 20.0448 5.05061 20.2752C4.93318 20.5057 4.65204 20.5969 4.42266 20.4789C4.14309 20.3351 3.87724 20.1398 3.67454 19.86C3.43796 19.5335 3.33832 19.1593 3.30041 18.7977C3.26283 18.4391 3.28327 18.0625 3.31044 17.7139C3.33876 17.3506 3.37337 17.0254 3.38012 16.7067C3.38679 16.3918 3.36379 16.1308 3.29507 15.9183L3.29501 15.9181C3.23059 15.7185 3.1004 15.5031 2.91092 15.2566C2.71865 15.0064 2.50147 14.7683 2.26341 14.4893C1.82734 13.9781 1.29639 13.3118 1.29639 12.5054Z" fill="black"/>
<path d="M25.2681 12.5056C25.2681 12.201 25.1137 11.8813 24.8199 11.4942C24.6636 11.2884 24.7031 10.9942 24.908 10.8372C25.1129 10.6803 25.4057 10.7199 25.5619 10.9257C25.8877 11.3549 26.2013 11.8827 26.2013 12.5056C26.2012 13.312 25.6702 13.9783 25.2342 14.4895C24.9961 14.7685 24.7789 15.0066 24.5867 15.2568C24.3972 15.5033 24.267 15.7187 24.2026 15.9183L24.2025 15.9186C24.1338 16.1311 24.1108 16.392 24.1175 16.7069C24.1243 17.0256 24.1588 17.3508 24.1871 17.7142C24.2143 18.0628 24.2347 18.4394 24.1972 18.7979C24.1593 19.1595 24.0596 19.5337 23.8231 19.8601C23.36 20.4995 22.5425 20.7199 21.8957 20.8754C21.542 20.9604 21.224 21.027 20.9208 21.1181C20.6214 21.208 20.3842 21.3089 20.2079 21.4376L20.208 21.4377C20.0347 21.5645 19.868 21.7585 19.6917 22.0168C19.513 22.2786 19.3532 22.5613 19.1632 22.8742C18.8158 23.4465 18.3526 24.1605 17.5976 24.4065L17.5975 24.4065C17.2181 24.5302 16.8355 24.5078 16.4844 24.4314C16.1361 24.3555 15.7875 24.2191 15.4667 24.0854C15.1328 23.9462 14.834 23.8124 14.533 23.7077C14.2355 23.6041 13.9772 23.545 13.7489 23.545C13.5205 23.545 13.2622 23.6041 12.9647 23.7077C12.6637 23.8124 12.365 23.9462 12.031 24.0854C11.7103 24.2191 11.3617 24.3555 11.0133 24.4314C10.6622 24.5078 10.2795 24.5303 9.90001 24.4065V24.4064C9.14509 24.1603 8.68192 23.4465 8.33451 22.8742C8.14456 22.5614 7.98477 22.2786 7.80607 22.0168C7.62974 21.7585 7.46303 21.5645 7.28972 21.4377V21.4376C7.11684 21.3117 6.88573 21.2121 6.59488 21.1236C6.34826 21.0486 6.2089 20.7869 6.28358 20.5391C6.35825 20.2914 6.61872 20.1513 6.86535 20.2263C7.1988 20.3278 7.54362 20.4643 7.83851 20.6794L7.839 20.6798C8.13818 20.8986 8.37581 21.1939 8.57564 21.4867C8.77308 21.7759 8.96128 22.1061 9.13123 22.3861C9.49194 22.9802 9.78871 23.3661 10.1527 23.5023L10.1881 23.5147L10.1883 23.5148C10.3566 23.5697 10.5592 23.571 10.8157 23.5152C11.0751 23.4587 11.3566 23.3516 11.6734 23.2195C11.9769 23.0929 12.3231 22.9387 12.6593 22.8217C12.999 22.7036 13.3704 22.6075 13.7489 22.6075C14.1274 22.6075 14.4987 22.7036 14.8384 22.8217C15.1746 22.9387 15.5209 23.0929 15.8244 23.2195C16.1412 23.3516 16.4227 23.4587 16.682 23.5152C16.9385 23.571 17.1411 23.5697 17.3094 23.5148L17.3096 23.5147C17.69 23.3908 17.9942 22.9994 18.3666 22.3861C18.5365 22.1061 18.7246 21.7759 18.9221 21.4867C19.1219 21.1939 19.3595 20.8986 19.6587 20.6798L19.6588 20.6797C19.9598 20.4598 20.3135 20.3219 20.6536 20.2198C20.9899 20.1188 21.3603 20.0402 21.6786 19.9636C22.3759 19.796 22.8373 19.6279 23.0685 19.3086L23.0687 19.3084C23.1761 19.1602 23.2415 18.9634 23.2691 18.6997C23.2971 18.433 23.2835 18.1302 23.2568 17.7874C23.2312 17.4593 23.192 17.0811 23.1845 16.7268C23.1769 16.3686 23.1993 15.9867 23.315 15.6289C23.4282 15.2782 23.6338 14.9626 23.8481 14.6839C24.0596 14.4087 24.3142 14.1273 24.5257 13.8794C24.9887 13.3367 25.2681 12.9192 25.2681 12.5056Z" fill="black"/>
<path d="M5.38196 12.5052C5.38196 10.6398 5.98766 8.91483 7.01156 7.52014C7.16452 7.3118 7.45661 7.26748 7.664 7.42114C7.87137 7.57481 7.91549 7.86826 7.76254 8.0766C6.8529 9.31565 6.31514 10.8469 6.31514 12.5052C6.31515 16.6302 9.64306 19.974 13.7489 19.974C17.8547 19.974 21.1826 16.6302 21.1826 12.5052C21.1826 8.38099 17.8547 5.03712 13.7489 5.03711C12.0326 5.03711 10.4535 5.62087 9.19548 6.60181C8.99192 6.76053 8.6988 6.72341 8.5408 6.51892C8.38279 6.31441 8.41973 6.01994 8.6233 5.86121C10.0392 4.75715 11.8182 4.09961 13.7489 4.09961C18.3701 4.09962 22.1158 7.86327 22.1158 12.5052C22.1158 17.1478 18.3701 20.9115 13.7489 20.9115C9.12758 20.9115 5.38197 17.1478 5.38196 12.5052Z" fill="black"/>
<path d="M13.1548 8.29685C13.4997 8.01043 13.998 8.01043 14.3429 8.29685C14.3432 8.29709 14.3435 8.29728 14.3438 8.29752C14.6281 8.53481 15.0638 8.93528 15.451 9.44907C15.8354 9.95925 16.1962 10.6132 16.2827 11.3541C16.3127 11.6112 16.1296 11.8441 15.8736 11.8743C15.6177 11.9045 15.3859 11.7205 15.3559 11.4633C15.2962 10.9523 15.0385 10.4551 14.7069 10.0149C14.3786 9.57921 14.0014 9.23075 13.7488 9.01981C13.4963 9.23071 13.1193 9.57918 12.7912 10.0149C12.4597 10.455 12.2022 10.9523 12.1425 11.4633C12.1125 11.7205 11.8806 11.9045 11.6247 11.8743C11.3687 11.8441 11.1856 11.6112 11.2156 11.3541C11.3021 10.6133 11.6627 9.95939 12.047 9.44919C12.434 8.93539 12.8696 8.53486 13.1539 8.29752L13.1548 8.29685Z" fill="black"/>
<path d="M9.41247 10.7539C9.80665 10.7171 10.4577 10.6892 11.1468 10.803C11.8311 10.916 12.6027 11.177 13.1825 11.7595C13.7623 12.342 14.022 13.1171 14.1345 13.8045C14.2478 14.4968 14.2201 15.1508 14.1835 15.5469C14.1421 15.9956 13.7887 16.3503 13.3423 16.392H13.3423C12.9481 16.4287 12.297 16.4566 11.6079 16.3428C10.9237 16.2298 10.1521 15.9689 9.57231 15.3864H9.57225C8.99244 14.8038 8.7327 14.0287 8.62024 13.3413C8.50698 12.6489 8.53475 11.9949 8.57133 11.5989C8.61275 11.1502 8.96607 10.7955 9.41241 10.7539H9.41247ZM10.9955 11.7281C10.415 11.6322 9.85161 11.6545 9.50032 11.6871C9.46781 12.0401 9.44568 12.606 9.54109 13.1892C9.63744 13.7782 9.84546 14.3349 10.2322 14.7235C10.6189 15.1119 11.1731 15.3209 11.7593 15.4177C12.3398 15.5135 12.9031 15.4912 13.2544 15.4586C13.2869 15.1056 13.3091 14.5397 13.2137 13.9565C13.1173 13.3676 12.9093 12.8109 12.5226 12.4224C12.1359 12.0339 11.5817 11.8249 10.9955 11.7281Z" fill="black"/>
<path d="M16.351 10.803C17.0401 10.6892 17.6911 10.7171 18.0853 10.7539H18.0854C18.5317 10.7955 18.8851 11.1502 18.9265 11.5989L18.9332 11.6761C18.966 12.0768 18.9837 12.6922 18.8775 13.3413C18.7668 14.0179 18.5134 14.7796 17.9525 15.3589L17.9255 15.3864C17.3457 15.9689 16.5741 16.2298 15.8899 16.3428C15.2007 16.4566 14.5497 16.4287 14.1555 16.392H14.1554C13.7091 16.3503 13.3558 15.9956 13.3144 15.5469C13.2778 15.1508 13.25 14.4968 13.3633 13.8045C13.4757 13.1171 13.7355 12.342 14.3154 11.7595C14.8952 11.177 15.6667 10.916 16.351 10.803ZM17.9974 11.6871C17.6461 11.6545 17.0828 11.6323 16.5024 11.7281C15.9161 11.8249 15.3619 12.0339 14.9752 12.4224C14.5885 12.8109 14.3805 13.3676 14.2841 13.9565C14.1887 14.5397 14.2109 15.1056 14.2434 15.4586C14.5947 15.4912 15.158 15.5135 15.7385 15.4177C16.3248 15.3209 16.879 15.1119 17.2657 14.7235C17.6524 14.3349 17.8603 13.7782 17.9567 13.1892C18.0521 12.606 18.0299 12.0401 17.9974 11.6871Z" fill="black"/>
</svg>
