<svg width="28" height="16" viewBox="0 0 28 16" fill="none" xmlns="http://www.w3.org/2000/svg">
<path d="M22.5582 7.99902H22.2409C19.4934 8.08174 17.333 10.3684 17.333 13.0962V15.4655H26.3443C26.9639 15.4655 27.4661 14.9671 27.4661 14.3522V13.0962C27.4661 10.3683 25.3057 8.08174 22.5582 7.99902Z" fill="#FE73C5"/>
<path d="M25.703 9.33301V12.6512C25.703 13.255 25.205 13.7444 24.5905 13.7444H19.9995V15.4662H26.3535C26.968 15.4662 27.466 14.9768 27.466 14.373V13.1397C27.466 11.6298 26.7851 10.2575 25.703 9.33301Z" fill="#FE4FB7"/>
<path d="M22.3995 7.9993C23.8723 7.9993 25.0661 6.74572 25.0661 5.19936C25.0661 3.65299 23.8723 2.39941 22.3995 2.39941C20.9268 2.39941 19.7329 3.65299 19.7329 5.19936C19.7329 6.74572 20.9268 7.9993 22.3995 7.9993Z" fill="#FFDFCF"/>
<path d="M5.62933 7.99902H5.30366C2.48387 8.08174 0.266602 10.3684 0.266602 13.0962V14.3522C0.266602 14.9671 0.782075 15.4655 1.41798 15.4655H10.6664V13.0962C10.6664 10.3683 8.44912 8.08174 5.62933 7.99902Z" fill="#00F2A6"/>
<path d="M0.266602 13.8662V14.4503C0.266602 15.0114 0.78245 15.4662 1.41882 15.4662H7.99978V13.8662H0.266602Z" fill="#05E39C"/>
<path d="M5.46669 7.9993C7.01306 7.9993 8.26664 6.74572 8.26664 5.19936C8.26664 3.65299 7.01306 2.39941 5.46669 2.39941C3.92033 2.39941 2.66675 3.65299 2.66675 5.19936C2.66675 6.74572 3.92033 7.9993 5.46669 7.9993Z" fill="#BB5D4C"/>
<path d="M14.1875 6.66602H13.8118C10.5582 6.76468 7.99976 9.49232 7.99976 12.7462V15.4658H19.9995V12.7463C19.9996 9.49232 17.4412 6.76468 14.1875 6.66602Z" fill="#FED402"/>
<path d="M13.9997 6.66641C15.6933 6.66641 17.0663 5.29345 17.0663 3.59981C17.0663 1.90617 15.6933 0.533203 13.9997 0.533203C12.3061 0.533203 10.9331 1.90617 10.9331 3.59981C10.9331 5.29345 12.3061 6.66641 13.9997 6.66641Z" fill="#FFDFCF"/>
<path d="M20 13.8662H8.00024V15.4662H20V13.8662Z" fill="#FAC600"/>
<path d="M22.9325 2.66602C23.1914 3.08378 23.342 3.57989 23.342 4.11268C23.342 5.59776 22.1759 6.80164 20.7373 6.80164C20.5764 6.80164 20.4192 6.78581 20.2664 6.75694C20.7291 7.50375 21.539 7.99924 22.4615 7.99924C23.9001 7.99924 25.0663 6.79535 25.0663 5.31028C25.0662 3.99137 24.1461 2.89498 22.9325 2.66602Z" fill="#FFCEBF"/>
<path d="M6.01417 2.66602C6.28745 3.08378 6.44651 3.57989 6.44651 4.11268C6.44651 5.59776 5.21554 6.80164 3.69706 6.80164C3.5272 6.80164 3.36125 6.78581 3.19995 6.75694C3.68844 7.50375 4.54329 7.99924 5.51707 7.99924C7.03555 7.99924 8.26652 6.79535 8.26652 5.31028C8.26652 3.99137 7.29521 2.89498 6.01417 2.66602Z" fill="#A44F3E"/>
<path d="M14.7152 0.533203C15.0891 1.04755 15.3104 1.68108 15.3104 2.36678C15.3104 4.08568 13.9236 5.47917 12.2129 5.47917C11.9555 5.47917 11.7056 5.44711 11.4666 5.38765C12.03 6.16259 12.9407 6.66641 13.9689 6.66641C15.6796 6.66641 17.0664 5.27297 17.0664 3.55402C17.0664 2.09377 16.0653 0.868899 14.7152 0.533203Z" fill="#FFCEBF"/>
<path d="M24.7329 5.19942C24.7329 3.9645 23.6883 2.96341 22.3996 2.96341C21.111 2.96341 20.0664 3.9645 20.0664 5.19942C20.0664 6.43433 21.111 7.43542 22.3996 7.43543C23.6883 7.43543 24.7329 6.43434 24.7329 5.19942ZM25.5996 5.19942C25.5996 6.89306 24.1669 8.26602 22.3996 8.26602C20.6324 8.26602 19.1997 6.89306 19.1997 5.19942C19.1997 3.50578 20.6324 2.13282 22.3996 2.13281C24.1669 2.13281 25.5996 3.50578 25.5996 5.19942Z" fill="black"/>
<path d="M7.70252 5.19942C7.70251 3.9645 6.70142 2.96341 5.46651 2.96341C4.2316 2.96341 3.2305 3.96451 3.2305 5.19942C3.2305 6.43433 4.23159 7.43542 5.46651 7.43543C6.70143 7.43543 7.70252 6.43434 7.70252 5.19942ZM8.53311 5.19942C8.53311 6.89306 7.16015 8.26602 5.46651 8.26602C3.77287 8.26602 2.3999 6.89306 2.3999 5.19942C2.39991 3.50578 3.77287 2.13282 5.46651 2.13281C7.16015 2.13281 8.53311 3.50578 8.53311 5.19942Z" fill="black"/>
<path d="M16.7481 3.59993C16.7481 2.08209 15.5177 0.851628 13.9998 0.851621C12.482 0.851621 11.2515 2.08209 11.2515 3.59993C11.2515 5.11776 12.482 6.34823 13.9998 6.34823C15.5177 6.34823 16.7481 5.11776 16.7481 3.59993ZM17.5998 3.59993C17.5998 5.5881 15.988 7.19985 13.9998 7.19985C12.0117 7.19985 10.3999 5.5881 10.3999 3.59993C10.3999 1.61175 12.0117 0 13.9998 0C15.988 7.02381e-06 17.5998 1.61175 17.5998 3.59993Z" fill="black"/>
<path d="M27.1544 14.4264V13.1354C27.1544 10.557 25.1612 8.406 22.6412 8.32509H22.3363C21.1376 8.36358 20.0601 8.86916 19.2574 9.66745L18.6663 9.05419C19.6136 8.11204 20.8921 7.51092 22.3166 7.46702L22.3294 7.4668H22.6481L22.6609 7.46702C25.6565 7.55933 27.9994 10.1078 27.9994 13.1354V14.4264C27.9994 15.2955 27.3058 16 26.4503 16H20.0154V15.1417H26.4503C26.8392 15.1417 27.1544 14.8215 27.1544 14.4264Z" fill="black"/>
<path d="M0 14.4264V13.1354C0 10.1079 2.34291 7.55933 5.33855 7.46702C5.34282 7.46689 5.34709 7.4668 5.35136 7.4668H5.67005L5.68287 7.46702C7.10729 7.51092 8.38579 8.11198 9.33315 9.05419L8.74199 9.66745C7.9393 8.86912 6.86189 8.36358 5.66317 8.32509H5.3583C2.83827 8.40599 0.844987 10.557 0.844987 13.1354V14.4264C0.844987 14.8215 1.16023 15.1417 1.54914 15.1417H7.98408V16H1.54914C0.693558 16 0 15.2955 0 14.4264Z" fill="black"/>
<path d="M19.4165 12.8714C19.4165 9.85832 17.0461 7.34284 14.0466 7.24875H13.6859C11.2909 7.32399 9.29703 8.94195 8.5904 11.1287C8.51835 11.3516 8.27889 11.474 8.05556 11.4021C7.83222 11.3302 7.70959 11.0911 7.78164 10.8682C8.5925 8.35894 10.8881 6.48476 13.6664 6.40061L13.6793 6.40039H14.0535L14.0664 6.40061C17.5442 6.50594 20.2663 9.41439 20.2663 12.8714V15.576C20.2663 15.8103 20.0761 16.0002 19.8414 16.0002H7.89146C7.6568 16.0002 7.46656 15.8103 7.46655 15.576V12.9603C7.46655 12.726 7.65679 12.5361 7.89146 12.5361C8.12613 12.5361 8.31636 12.726 8.31636 12.9603V15.1518H19.4165V12.8714Z" fill="black"/>
</svg>
