<svg width="21" height="24" viewBox="0 0 21 24" fill="none" xmlns="http://www.w3.org/2000/svg">
<path d="M18.1874 4.67337L10.8374 2.14427C10.619 2.0678 10.381 2.0678 10.1626 2.14427L2.81258 4.67337C2.38558 4.81923 2.09998 5.22281 2.09998 5.67878V11.3686C2.09998 18.313 9.76358 21.6889 10.0898 21.8291C10.353 21.941 10.647 21.941 10.9102 21.8291C11.2364 21.6875 18.9 18.313 18.9 11.3686V5.67878C18.9 5.22281 18.6144 4.81923 18.1874 4.67337Z" fill="#00F097" stroke="#020617" stroke-width="1.2" stroke-linejoin="round"/>
<path d="M15.4388 9.75998L11.4408 15.0725C10.9319 15.751 9.97823 15.8497 9.35308 15.2866L6.80888 13.0097C6.19827 12.4648 6.12704 11.5071 6.65041 10.8695C7.17379 10.2336 8.09116 10.1607 8.69886 10.7056L10.0916 11.9518L13.1519 7.88541C13.6477 7.22665 14.5607 7.10977 15.1931 7.6304C15.8255 8.14648 15.936 9.10122 15.4388 9.75998Z" fill="white" stroke="#020617" stroke-width="1.2" stroke-linejoin="round"/>
</svg>
